<svg width="24" height="24" viewBox="0 0 24 24" fill="none" xmlns="http://www.w3.org/2000/svg">
<path d="M13.2562 6.06374L14.2875 5.03249C14.6934 4.62651 15.1752 4.30446 15.7056 4.08474C16.2359 3.86501 16.8044 3.75192 17.3784 3.75192C17.9525 3.75192 18.5209 3.86501 19.0513 4.08474C19.5816 4.30446 20.0635 4.62651 20.4694 5.03249C20.8753 5.43835 21.1974 5.92022 21.4171 6.45057C21.6368 6.98092 21.7499 7.54936 21.7499 8.12343C21.7499 8.69749 21.6368 9.26593 21.4171 9.79628C21.1974 10.3266 20.8753 10.8085 20.4694 11.2144L18.1837 13.5L17.2144 14.4694C16.808 14.8758 16.3255 15.1981 15.7945 15.4178C15.2635 15.6376 14.6943 15.7504 14.1196 15.75C13.5449 15.7496 12.976 15.6358 12.4453 15.4153C11.9146 15.1947 11.4326 14.8717 11.0269 14.4647C10.6069 14.0449 10.2772 13.5437 10.0579 12.9918C9.83867 12.44 9.73452 11.8492 9.75186 11.2556" stroke="white" stroke-width="2" stroke-linecap="round" stroke-linejoin="round"/>
<path d="M10.7438 17.9363L9.71253 18.9675C9.30619 19.3739 8.8237 19.6962 8.29267 19.916C7.76165 20.1357 7.1925 20.2486 6.6178 20.2482C6.04311 20.2477 5.47413 20.134 4.94344 19.9134C4.41275 19.6929 3.93075 19.3698 3.52503 18.9628C2.70751 18.1425 2.24895 17.0312 2.25 15.8731C2.25106 14.7149 2.71165 13.6045 3.53065 12.7856L6.78565 9.53063C7.19152 9.12465 7.67339 8.8026 8.20374 8.58287C8.73409 8.36315 9.30252 8.25006 9.87659 8.25006C10.4507 8.25006 11.0191 8.36315 11.5494 8.58287C12.0798 8.8026 12.5617 9.12465 12.9675 9.53063C13.3892 9.9504 13.7204 10.4521 13.9407 11.0049C14.1609 11.5576 14.2656 12.1496 14.2482 12.7444" stroke="white" stroke-width="2" stroke-linecap="round" stroke-linejoin="round"/>
</svg>
