<svg width="28" height="28" viewBox="0 0 28 28" fill="none" xmlns="http://www.w3.org/2000/svg">
<path fill-rule="evenodd" clip-rule="evenodd" d="M8.33 2.62498C6.0935 2.62498 4.19125 3.42823 2.85775 4.89298C1.5365 6.34198 0.875 8.32648 0.875 10.5227C0.875 14.3377 2.8175 17.3775 5.285 19.7417C7.742 22.0955 10.8325 23.8857 13.391 25.2245C13.578 25.3226 13.7858 25.3741 13.9969 25.3747C14.2081 25.3753 14.4162 25.325 14.6038 25.228C17.164 23.9032 20.2528 22.099 22.7115 19.733C25.179 17.3617 27.125 14.3115 27.125 10.5227C27.125 8.31773 26.46 6.33498 25.137 4.88598C23.8018 3.42473 21.8995 2.62323 19.67 2.62323C17.787 2.62323 16.2295 3.32148 15.0448 4.63748C14.6398 5.09351 14.2892 5.59504 14 6.13198C13.7108 5.59504 13.3602 5.09351 12.9552 4.63748C11.7705 3.32148 10.213 2.62498 8.33 2.62498Z" fill="#DFDEFF"/>
</svg>
