<svg xmlns="http://www.w3.org/2000/svg" width="28" height="28" viewBox="0 0 28 28" fill="none">
<path fill-rule="evenodd" clip-rule="evenodd" d="M8.33 2.625C6.0935 2.625 4.19125 3.42825 2.85775 4.893C1.5365 6.342 0.875 8.3265 0.875 10.5227C0.875 14.3377 2.8175 17.3775 5.285 19.7417C7.742 22.0955 10.8325 23.8857 13.391 25.2245C13.578 25.3226 13.7858 25.3741 13.9969 25.3747C14.2081 25.3753 14.4162 25.325 14.6038 25.228C17.164 23.9032 20.2528 22.099 22.7115 19.733C25.179 17.3617 27.125 14.3115 27.125 10.5227C27.125 8.31775 26.46 6.335 25.137 4.886C23.8018 3.42475 21.8995 2.62325 19.67 2.62325C17.787 2.62325 16.2295 3.3215 15.0448 4.6375C14.6398 5.09353 14.2892 5.59505 14 6.132C13.7108 5.59505 13.3602 5.09353 12.9552 4.6375C11.7705 3.3215 10.213 2.625 8.33 2.625Z" fill="#5A42EE"/>
</svg>