<svg width="28" height="28" viewBox="0 0 28 28" fill="none" xmlns="http://www.w3.org/2000/svg">
<path fill-rule="evenodd" clip-rule="evenodd" d="M8.33 2.62501C6.0935 2.62501 4.19125 3.42826 2.85775 4.89301C1.5365 6.34201 0.875 8.32651 0.875 10.5228C0.875 14.3378 2.8175 17.3775 5.285 19.7418C7.742 22.0955 10.8325 23.8858 13.391 25.2245C13.578 25.3226 13.7858 25.3741 13.9969 25.3747C14.2081 25.3753 14.4162 25.325 14.6038 25.228C17.164 23.9033 20.2528 22.099 22.7115 19.733C25.179 17.3618 27.125 14.3115 27.125 10.5228C27.125 8.31776 26.46 6.33501 25.137 4.88601C23.8018 3.42476 21.8995 2.62326 19.67 2.62326C17.787 2.62326 16.2295 3.32151 15.0448 4.63751C14.6398 5.09354 14.2892 5.59507 14 6.13201C13.7108 5.59507 13.3602 5.09354 12.9552 4.63751C11.7705 3.32151 10.213 2.62501 8.33 2.62501Z" fill="#DFDEFF"/>
<path d="M5.285 19.7418C2.8175 17.3775 0.875 14.3378 0.875 10.5228H27.125C27.125 14.3115 25.179 17.3618 22.7115 19.733C20.2527 22.099 17.164 23.9033 14.6037 25.228C14.4162 25.325 14.2081 25.3753 13.9969 25.3747C13.7858 25.3741 13.578 25.3226 13.391 25.2245C10.8325 23.8858 7.742 22.0955 5.285 19.7418Z" fill="#5A42EE"/>
</svg>
