<svg xmlns="http://www.w3.org/2000/svg" width="23" height="16" viewBox="0 0 23 16" fill="none">
<path d="M6.80523 12.248L2.23948 8.06568C1.99346 7.84032 1.65978 7.71371 1.31186 7.71371C0.963932 7.71371 0.630256 7.84032 0.384234 8.06568C0.138213 8.29104 0 8.59669 0 8.91539C0 9.0732 0.0339325 9.22946 0.0998595 9.37525C0.165787 9.52105 0.262417 9.65352 0.384234 9.76511L5.88419 14.8031C6.39734 15.2732 7.22628 15.2732 7.73944 14.8031L21.6604 2.05139C21.9064 1.82603 22.0446 1.52038 22.0446 1.20168C22.0446 0.882973 21.9064 0.577321 21.6604 0.351963C21.4144 0.126605 21.0807 0 20.7327 0C20.3848 0 20.0511 0.126605 19.8051 0.351963L6.80523 12.248Z" fill="white"/>
</svg>