<svg xmlns="http://www.w3.org/2000/svg" width="12" height="14" viewBox="0 0 12 14" fill="none">
    <path d="M5.7252 9.65167C6.58313 9.65072 7.40564 9.31993 8.01229 8.73187C8.61894 8.14381 8.96019 7.34652 8.96118 6.51488V3.13679C8.96118 2.30486 8.62024 1.50701 8.01338 0.918746C7.40652 0.330483 6.58343 0 5.7252 0C4.86696 0 4.04388 0.330483 3.43701 0.918746C2.83015 1.50701 2.48922 2.30486 2.48922 3.13679V6.51488C2.4902 7.34652 2.83145 8.14381 3.4381 8.73187C4.04475 9.31993 4.86727 9.65072 5.7252 9.65167ZM3.98275 3.13679C3.98275 2.68883 4.16633 2.25922 4.4931 1.94246C4.81987 1.6257 5.26307 1.44775 5.7252 1.44775C6.18732 1.44775 6.63052 1.6257 6.9573 1.94246C7.28407 2.25922 7.46765 2.68883 7.46765 3.13679V6.51488C7.46765 6.96284 7.28407 7.39246 6.9573 7.70921C6.63052 8.02597 6.18732 8.20392 5.7252 8.20392C5.26307 8.20392 4.81987 8.02597 4.4931 7.70921C4.16633 7.39246 3.98275 6.96284 3.98275 6.51488V3.13679ZM6.47196 12.0175V13.2711C6.47196 13.463 6.39328 13.6472 6.25324 13.7829C6.11319 13.9187 5.92325 13.9949 5.7252 13.9949C5.52714 13.9949 5.3372 13.9187 5.19715 13.7829C5.05711 13.6472 4.97843 13.463 4.97843 13.2711V12.0175C3.60192 11.8402 2.33857 11.1846 1.42298 10.1726C0.507381 9.16064 0.0017595 7.86093 0 6.51488C0 6.3229 0.0786767 6.13878 0.218722 6.00302C0.358768 5.86727 0.54871 5.791 0.746765 5.791C0.944819 5.791 1.13476 5.86727 1.27481 6.00302C1.41485 6.13878 1.49353 6.3229 1.49353 6.51488C1.49353 7.60279 1.93936 8.64614 2.73296 9.41541C3.52655 10.1847 4.60289 10.6168 5.7252 10.6168C6.84751 10.6168 7.92385 10.1847 8.71744 9.41541C9.51103 8.64614 9.95686 7.60279 9.95686 6.51488C9.95686 6.3229 10.0355 6.13878 10.1756 6.00302C10.3156 5.86727 10.5056 5.791 10.7036 5.791C10.9017 5.791 11.0916 5.86727 11.2317 6.00302C11.3717 6.13878 11.4504 6.3229 11.4504 6.51488C11.4486 7.86093 10.943 9.16064 10.0274 10.1726C9.11182 11.1846 7.84847 11.8402 6.47196 12.0175Z" fill="currentColor"/>
</svg>