<svg xmlns="http://www.w3.org/2000/svg" width="17" height="17" viewBox="0 0 17 17" fill="none">
    <path d="M7.15654 9.26364L11.195 5.22518M15.3261 2.76058L11.9173 13.8394C11.6118 14.8323 11.4589 15.3289 11.1954 15.4936C10.9669 15.6364 10.6839 15.6602 10.435 15.557C10.148 15.4379 9.91506 14.9728 9.45035 14.0434L7.29122 9.7251C7.21748 9.57761 7.18057 9.50417 7.13131 9.44027C7.0876 9.38356 7.03715 9.33247 6.98044 9.28876C6.91799 9.24062 6.84578 9.20452 6.70487 9.13407L2.37667 6.96997C1.44725 6.50526 0.982495 6.27269 0.863403 5.98568C0.760121 5.73677 0.783675 5.45354 0.926473 5.225C1.09113 4.96147 1.58776 4.80837 2.58093 4.50278L13.6598 1.09391C14.4406 0.853668 14.8311 0.733641 15.0948 0.830462C15.3246 0.914796 15.5057 1.09572 15.59 1.32544C15.6868 1.58905 15.5667 1.97941 15.3266 2.75943L15.3261 2.76058Z" stroke="currentColor" stroke-width="1.6" stroke-linecap="round" stroke-linejoin="round"/>
</svg>