<svg width="32" height="32" viewBox="0 0 32 32" fill="none" xmlns="http://www.w3.org/2000/svg">
<path d="M2.66406 2.67969L29.3307 29.3464" stroke="#747A83" stroke-width="3.38824" stroke-linecap="round" stroke-linejoin="round"/>
<path d="M25.1875 17.627C25.2838 17.0856 25.3329 16.5369 25.3342 15.987V13.3203" stroke="#747A83" stroke-width="3.38824" stroke-linecap="round" stroke-linejoin="round"/>
<path d="M6.66505 13.3203V15.987C6.63792 17.8525 7.17054 19.6834 8.19416 21.2433C9.21778 22.8032 10.6854 24.0205 12.4077 24.7381C14.1299 25.4557 16.0277 25.6406 17.856 25.2691C19.6844 24.8975 21.3595 23.9865 22.6651 22.6536" stroke="#747A83" stroke-width="3.38824" stroke-linecap="round" stroke-linejoin="round"/>
<path d="M20.003 12.4423V6.65559C19.9976 5.75742 19.6901 4.8872 19.1299 4.18508C18.5697 3.48297 17.7896 2.98981 16.915 2.78504C16.0405 2.58026 15.1225 2.67578 14.3089 3.05621C13.4952 3.43665 12.8333 4.07986 12.4297 4.88226" stroke="#747A83" stroke-width="3.38824" stroke-linecap="round" stroke-linejoin="round"/>
<path d="M12 12V16C12.0007 16.7906 12.2357 17.5633 12.6752 18.2204C13.1148 18.8776 13.7393 19.3897 14.4697 19.6922C15.2002 19.9947 16.0039 20.0739 16.7794 19.9198C17.5549 19.7658 18.2673 19.3854 18.8267 18.8267" stroke="#747A83" stroke-width="3.38824" stroke-linecap="round" stroke-linejoin="round"/>
<path d="M16 25.3203V29.3203" stroke="#747A83" stroke-width="3.38824" stroke-linecap="round" stroke-linejoin="round"/>
</svg>
