<svg width="27" height="32" viewBox="0 0 27 32" fill="none" xmlns="http://www.w3.org/2000/svg">
<path d="M13.0909 22.069C15.0526 22.0668 16.9333 21.3104 18.3204 19.9658C19.7076 18.6212 20.4879 16.7981 20.4901 14.8966V7.17241C20.4901 5.27017 19.7106 3.44584 18.3229 2.10075C16.9353 0.755663 15.0533 0 13.0909 0C11.1285 0 9.2465 0.755663 7.85888 2.10075C6.47126 3.44584 5.6917 5.27017 5.6917 7.17241V14.8966C5.69396 16.7981 6.47424 18.6212 7.86137 19.9658C9.2485 21.3104 11.1292 22.0668 13.0909 22.069ZM9.10672 7.17241C9.10672 6.14813 9.52648 5.1658 10.2737 4.44152C11.0208 3.71724 12.0342 3.31034 13.0909 3.31034C14.1476 3.31034 15.161 3.71724 15.9082 4.44152C16.6553 5.1658 17.0751 6.14813 17.0751 7.17241V14.8966C17.0751 15.9208 16.6553 16.9032 15.9082 17.6274C15.161 18.3517 14.1476 18.7586 13.0909 18.7586C12.0342 18.7586 11.0208 18.3517 10.2737 17.6274C9.52648 16.9032 9.10672 15.9208 9.10672 14.8966V7.17241ZM14.7984 27.4786V30.3448C14.7984 30.7838 14.6185 31.2048 14.2983 31.5152C13.9781 31.8256 13.5438 32 13.0909 32C12.638 32 12.2037 31.8256 11.8835 31.5152C11.5633 31.2048 11.3834 30.7838 11.3834 30.3448V27.4786C8.23594 27.0731 5.34724 25.5742 3.25369 23.2602C1.16015 20.9462 0.00402318 17.9744 0 14.8966C0 14.4576 0.179898 14.0366 0.500118 13.7262C0.820338 13.4158 1.25465 13.2414 1.70751 13.2414C2.16037 13.2414 2.59468 13.4158 2.9149 13.7262C3.23512 14.0366 3.41502 14.4576 3.41502 14.8966C3.41502 17.3841 4.43444 19.7698 6.24902 21.5287C8.0636 23.2877 10.5247 24.2759 13.0909 24.2759C15.6571 24.2759 18.1182 23.2877 19.9328 21.5287C21.7474 19.7698 22.7668 17.3841 22.7668 14.8966C22.7668 14.4576 22.9467 14.0366 23.2669 13.7262C23.5871 13.4158 24.0214 13.2414 24.4743 13.2414C24.9272 13.2414 25.3615 13.4158 25.6817 13.7262C26.0019 14.0366 26.1818 14.4576 26.1818 14.8966C26.1778 17.9744 25.0217 20.9462 22.9281 23.2602C20.8346 25.5742 17.9459 27.0731 14.7984 27.4786Z" fill="#5A42EE"/>
</svg>
