<svg width="24" height="24" viewBox="0 0 24 24" fill="none" xmlns="http://www.w3.org/2000/svg">
<path d="M8.33333 9.55556H8.34556M15.6667 9.55556H15.6789M1 12C1 13.4445 1.28452 14.8749 1.83733 16.2095C2.39013 17.5441 3.20038 18.7567 4.22183 19.7782C5.24327 20.7996 6.4559 21.6099 7.79048 22.1627C9.12506 22.7155 10.5555 23 12 23C13.4445 23 14.8749 22.7155 16.2095 22.1627C17.5441 21.6099 18.7567 20.7996 19.7782 19.7782C20.7996 18.7567 21.6099 17.5441 22.1627 16.2095C22.7155 14.8749 23 13.4445 23 12C23 10.5555 22.7155 9.12506 22.1627 7.79048C21.6099 6.4559 20.7996 5.24327 19.7782 4.22183C18.7567 3.20038 17.5441 2.39013 16.2095 1.83733C14.8749 1.28452 13.4445 1 12 1C10.5555 1 9.12506 1.28452 7.79048 1.83733C6.4559 2.39013 5.24327 3.20038 4.22183 4.22183C3.20038 5.24327 2.39013 6.4559 1.83733 7.79048C1.28452 9.12506 1 10.5555 1 12Z" stroke="#5A42EE" stroke-width="2" stroke-linecap="round" stroke-linejoin="round"/>
<path d="M8.94531 15.6641C9.34361 16.0706 9.81902 16.3935 10.3437 16.614C10.8684 16.8345 11.4318 16.948 12.0009 16.948C12.57 16.948 13.1334 16.8345 13.658 16.614C14.1827 16.3935 14.6581 16.0706 15.0564 15.6641" stroke="#5A42EE" stroke-width="2" stroke-linecap="round" stroke-linejoin="round"/>
</svg>
