<svg width="24" height="24" viewBox="0 0 13 13" fill="none" xmlns="http://www.w3.org/2000/svg">
<path d="M6.20936 1.5573L4.66226 4.56311C4.61912 4.64691 4.53911 4.70557 4.44621 4.7215L1.17536 5.28222C0.933517 5.32367 0.841013 5.62212 1.01701 5.79309L3.30256 8.01333C3.37426 8.08299 3.40656 8.18378 3.38869 8.28214L2.8171 11.4286C2.7732 11.6703 3.02241 11.8594 3.24334 11.7521L6.33694 10.2495C6.42425 10.2071 6.52669 10.2096 6.61187 10.2561L9.69636 11.9416C9.91653 12.0619 10.1783 11.8749 10.1359 11.6276L9.56296 8.28818C9.54552 8.18649 9.58154 8.08297 9.65836 8.01409L12.1263 5.80107C12.3141 5.63271 12.2229 5.32188 11.974 5.28158L8.50795 4.72041C8.41394 4.70519 8.33274 4.64623 8.28915 4.56156L6.74284 1.5573C6.63118 1.34036 6.32102 1.34036 6.20936 1.5573Z" fill="white" stroke="#9099A5" stroke-width="0.9" stroke-linecap="round"/>
</svg>
