<svg width="24" height="24" viewBox="0 0 13 13" fill="none" xmlns="http://www.w3.org/2000/svg">
<path d="M6.20936 1.35808L4.66226 4.36389C4.61912 4.44769 4.53911 4.50635 4.44621 4.52228L1.17536 5.083C0.933517 5.12445 0.841013 5.4229 1.01701 5.59387L3.30256 7.81412C3.37426 7.88377 3.40656 7.98456 3.38869 8.08292L2.8171 11.2294C2.7732 11.4711 3.02241 11.6602 3.24334 11.5529L6.33694 10.0503C6.42425 10.0079 6.52669 10.0103 6.61187 10.0569L9.69636 11.7423C9.91653 11.8626 10.1783 11.6756 10.1359 11.4284L9.56296 8.08896C9.54552 7.98727 9.58154 7.88376 9.65836 7.81488L12.1263 5.60185C12.3141 5.43349 12.2229 5.12266 11.974 5.08236L8.50795 4.52119C8.41394 4.50597 8.33274 4.44702 8.28915 4.36234L6.74284 1.35808C6.63118 1.14114 6.32102 1.14114 6.20936 1.35808Z" fill="#DFDEFF" stroke="#5A42EE" stroke-width="0.9" stroke-linecap="round"/>
</svg>
