<svg width="63" height="75" viewBox="0 0 63 75" fill="none" xmlns="http://www.w3.org/2000/svg">
<ellipse cx="10.7604" cy="67.8282" rx="3.0901" ry="5.9742" fill="#271709"/>
<ellipse cx="54.3314" cy="67.8282" rx="3.0901" ry="5.9742" fill="#271709"/>
<ellipse cx="9.4977" cy="67.8698" rx="3.0901" ry="5.9742" transform="rotate(13.5098 9.4977 67.8698)" fill="#271709"/>
<ellipse cx="53.0687" cy="67.8698" rx="3.0901" ry="5.9742" transform="rotate(13.5098 53.0687 67.8698)" fill="#271709"/>
<ellipse cx="12.1751" cy="67.8706" rx="3.0901" ry="5.9742" transform="rotate(-15.7723 12.1751 67.8706)" fill="#271709"/>
<ellipse cx="55.7457" cy="67.8706" rx="3.0901" ry="5.9742" transform="rotate(-15.7723 55.7457 67.8706)" fill="#271709"/>
<ellipse cx="10.6074" cy="42.6427" rx="5.9227" ry="4.78966" fill="#271709"/>
<ellipse cx="54.3841" cy="42.6427" rx="5.9227" ry="4.78966" fill="#271709"/>
<ellipse cx="10.6079" cy="48.9282" rx="5.20167" ry="4.17164" fill="#271709"/>
<ellipse cx="54.3842" cy="48.9282" rx="5.20167" ry="4.17164" fill="#271709"/>
<ellipse cx="10.6078" cy="55.2096" rx="4.37764" ry="3.55362" fill="#271709"/>
<ellipse cx="54.3841" cy="55.2096" rx="4.37764" ry="3.55362" fill="#271709"/>
<ellipse cx="10.6064" cy="60.4627" rx="3.75962" ry="3.0386" fill="#271709"/>
<ellipse cx="54.3831" cy="60.4627" rx="3.75962" ry="3.0386" fill="#271709"/>
<path d="M31.4809 0.464049C7.77687 0.464049 3.44786 21.055 3.44786 29.511H60.3057C60.3057 20.6157 55.9239 0.464049 31.4809 0.464049Z" fill="#271709"/>
<circle cx="55.0532" cy="33.1141" r="7.31324" fill="#FAC4A6"/>
<circle cx="8.08288" cy="33.1141" r="7.31324" fill="#FAC4A6"/>
<path fill-rule="evenodd" clip-rule="evenodd" d="M8.70096 26.3139V35.2726C8.70096 48.1575 19.1463 58.6028 32.0312 58.6028C44.9161 58.6028 55.3614 48.1575 55.3614 35.2726V26.3139H8.70096Z" fill="#FFE4D5"/>
<path fill-rule="evenodd" clip-rule="evenodd" d="M8.66785 37.3619V30.1221C8.66785 17.2279 19.1207 6.77504 32.0149 6.77504C44.9092 6.77504 55.362 17.2279 55.362 30.1221V37.3619H8.66785Z" fill="#FFE4D4"/>
<path d="M38.1598 4.83124C36.2865 12.4349 27.2984 27.5765 6.33176 25.9988C8.8878 16.4449 18.9894 -1.67684 38.1598 4.83124Z" fill="#271709"/>
<rect x="22.6064" y="29.4061" width="9.2703" height="12.9784" rx="4.63515" fill="white"/>
<rect x="32.3909" y="29.4061" width="9.2703" height="12.9784" rx="4.63515" fill="white"/>
<rect x="28.066" y="35.8955" width="2.88409" height="4.01713" rx="1.44205" fill="black"/>
<rect x="37.955" y="35.8955" width="2.88409" height="4.01713" rx="1.44205" fill="black"/>
<path d="M47.1448 16.8873C43.6786 11.9156 38.1092 10.378 34.9671 9.09664V4.7913C36.4447 4.94506 41.0202 5.72412 47.5014 7.61027C53.9826 9.49642 57.7769 20.7313 58.8639 26.113H56.3817C53.4208 26.113 50.843 24.1244 49.6368 21.4204C48.9573 19.897 48.1158 18.2801 47.1448 16.8873Z" fill="#271709"/>
<path d="M22.4003 34.8653C22.4003 32.9071 23.2808 29.4061 27.2381 29.4061C31.2847 29.4061 32.2208 33.0965 32.1846 34.8653" stroke="#DFA381" stroke-width="1.4047" stroke-linecap="round"/>
<path d="M32.1868 34.8653C32.1868 32.9071 33.0673 29.4061 37.0246 29.4061C41.0712 29.4061 42.0074 33.0965 41.9711 34.8653" stroke="#DFA381" stroke-width="1.4047" stroke-linecap="round"/>
<path d="M29.8179 45.6815L30.0746 45.8214C31.4328 46.5616 33.0855 46.5081 34.393 45.6815V45.6815" stroke="#FF5252" stroke-width="6.0402" stroke-linecap="round"/>
<circle cx="32.1859" cy="41.4604" r="1.44205" fill="#FAC4A6"/>
<path d="M30.1264 45.6815L30.3634 45.8106C31.6171 46.4939 33.1427 46.4445 34.3496 45.6815V45.6815" stroke="#C23A3A" stroke-width="0.702349" stroke-linecap="round"/>
<path d="M8.39255 62.9861V62.9861C9.79305 63.5176 11.338 63.5275 12.7452 63.014L12.8217 62.9861" stroke="#5A42EE" stroke-width="1.12376" stroke-linecap="round"/>
<path d="M52.1692 62.9861V62.9861C53.5697 63.5176 55.1147 63.5275 56.5219 63.014L56.5984 62.9861" stroke="#5A42EE" stroke-width="1.12376" stroke-linecap="round"/>
</svg>
