<svg viewBox="0 0 70 66" fill="none" xmlns="http://www.w3.org/2000/svg">
<path d="M48.12 4.82381C36.6676 0.522264 30.6341 7.76245 28.3433 10.2829C31.9178 23.3387 52.361 49.8126 57.5384 53.0867C62.7157 56.3608 66.9938 50.9866 67.2616 48.2962C68.3526 41.4017 69.6476 12.9096 48.12 4.82381Z" fill="#211D18"/>
<path d="M2.56158 35.6389C2.97053 29.1013 4.50406 22.7679 7.72452 17.8136C18.4082 5.14686 31.0855 7.03667 34.4082 7.03667C37.7309 7.03667 48.9769 9.23291 55.2645 17.8136C59.8969 24.1355 60.4274 32.4722 60.4274 35.6389C60.3886 39.264 60.1122 44.1712 59.7841 48.8649C59.1967 57.2678 52.1808 63.6919 43.7575 63.7288C36.677 63.7598 27.9579 63.782 19.6838 63.7601C10.8555 63.7367 3.46995 56.6724 2.89931 47.8625C2.59209 43.1196 2.37725 38.5858 2.56158 35.6389Z" fill="#463729"/>
<circle cx="54.6609" cy="39.9991" r="7.31324" fill="#F9C8BF"/>
<circle cx="7.69019" cy="39.9991" r="7.31324" fill="#F9C8BF"/>
<path fill-rule="evenodd" clip-rule="evenodd" d="M8.31076 33.1989V42.1573C8.31076 55.0423 18.7561 65.4876 31.641 65.4876C44.5259 65.4876 54.9712 55.0423 54.9712 42.1573V33.1989H8.31076Z" fill="#FFE6E1"/>
<path fill-rule="evenodd" clip-rule="evenodd" d="M8.27557 44.2991V37.0595C8.27557 24.1653 18.7284 13.7124 31.6227 13.7124C44.5169 13.7124 54.9698 24.1653 54.9698 37.0595V44.2991H8.27557Z" fill="#FFE6E1"/>
<rect x="22.2137" y="36.2912" width="9.2703" height="12.9784" rx="4.63515" fill="white"/>
<rect x="32.0006" y="36.2912" width="9.2703" height="12.9784" rx="4.63515" fill="white"/>
<rect x="27.6725" y="42.7789" width="2.88409" height="4.01713" rx="1.44205" fill="black"/>
<rect x="37.5615" y="42.7789" width="2.88409" height="4.01713" rx="1.44205" fill="black"/>
<path d="M22.0068 41.7504C22.0068 39.7923 22.8873 36.2912 26.8446 36.2912C30.8912 36.2913 31.8274 39.9817 31.7911 41.7504" stroke="#E19283" stroke-width="1.4047" stroke-linecap="round"/>
<path d="M31.7941 41.7504C31.7941 39.7923 32.6746 36.2912 36.6319 36.2912C40.6785 36.2913 41.6147 39.9817 41.5785 41.7504" stroke="#E19283" stroke-width="1.4047" stroke-linecap="round"/>
<path d="M29.4252 52.5667L29.6819 52.7065C31.0402 53.4468 32.6928 53.3932 34.0003 52.5667V52.5667" stroke="#FF5252" stroke-width="6.0402" stroke-linecap="round"/>
<circle cx="31.7928" cy="48.3413" r="1.44205" fill="#F9C8BF"/>
<path d="M29.7341 52.5667L29.9711 52.6958C31.2248 53.3791 32.7504 53.3297 33.9573 52.5667V52.5667" stroke="#C23A3A" stroke-width="0.702349" stroke-linecap="round"/>
<path fill-rule="evenodd" clip-rule="evenodd" d="M5.78351 30.9857C6.93715 24.2287 16.8732 14.3335 20.7187 12.3421C25.4693 9.88194 31.9057 10.7993 38.7216 11.7707L38.7217 11.7707C40.1077 11.9682 41.5095 12.168 42.9159 12.3421C51.2386 13.3721 55.345 28.0501 55.2248 32.7882C52.6534 32.7314 49.2096 32.6683 45.3905 32.6171C44.8111 32.3944 44.6146 31.7843 44.5644 31.4504C44.5644 29.9069 44.2093 28.0709 43.7516 26.3672C43.4734 25.3316 42.1953 25.5546 42.1953 26.627V27.6907L41.9033 31.4504L41.8987 31.5099C41.8649 31.868 41.7057 32.4677 41.2905 32.5687C35.3876 32.5089 29.0484 32.4884 23.8464 32.5646C22.9513 32.4116 22.6811 31.8668 22.6593 31.6033L22.3626 26.6835C22.3 25.6456 21.0169 25.4562 20.7291 26.4553C20.2473 28.1278 19.8372 29.9876 19.7553 31.6033C19.7366 31.9237 19.4944 32.5158 18.7172 32.6881C17.9294 32.7172 17.2026 32.7504 16.5472 32.7882C7.97728 33.2826 5.09683 32.4621 5.78351 30.9857Z" fill="#463729"/>
</svg>
