<svg viewBox="0 0 71 67" fill="none" xmlns="http://www.w3.org/2000/svg">
<path d="M28.6384 11.2344C23.3967 11.0766 11.6512 13.8114 6.60233 26.0128" stroke="#55391E" stroke-width="7.60253" stroke-linecap="round"/>
<path d="M53.7787 19.2835C57.916 22.4215 66.1379 32.2422 65.9275 46.4211" stroke="black" stroke-width="7.60253" stroke-linecap="round"/>
<path d="M13.861 18.4396C11.3892 20.3855 6.07735 28.3479 4.60477 44.6305" stroke="black" stroke-width="7.60253" stroke-linecap="round"/>
<path d="M51.7811 17.3922C55.0769 17.287 61.7316 19.559 61.984 29.4884C62.2364 39.4178 62.0892 51.8226 61.984 56.7837" stroke="#55391E" stroke-width="7.60253" stroke-linecap="round"/>
<path d="M49.2562 13.9636C52.4643 11.2813 60.1953 13.9636 61.4794 22.9753C62.8826 32.8235 61.6216 45.3373 61.4794 50.3047" stroke="#55391E" stroke-width="7.60253" stroke-linecap="round"/>
<path d="M45.3655 17.9161C42.0522 11.868 34.8101 9.67168 26.1694 11.342C17.6032 12.9979 11.0959 20.9142 10.9703 25.8575C10.7178 35.7868 10.8651 50.8212 10.9703 55.7824" stroke="black" stroke-width="7.60253" stroke-linecap="round"/>
<circle cx="58.5109" cy="40.8154" r="7.46808" fill="#EEA586"/>
<circle cx="10.5483" cy="40.8154" r="7.46808" fill="#EEA586"/>
<path fill-rule="evenodd" clip-rule="evenodd" d="M11.1777 33.8663V43.0164C11.1777 56.1741 21.8441 66.8406 35.0019 66.8406C48.1596 66.8406 58.8261 56.1741 58.8261 43.0164V33.8663H11.1777Z" fill="#FFCEB2"/>
<path fill-rule="evenodd" clip-rule="evenodd" d="M11.1441 45.1535V37.7589C11.1441 24.5916 21.8182 13.9175 34.9855 13.9175C48.1527 13.9175 58.8269 24.5916 58.8269 37.7589V45.1535H11.1441Z" fill="#FFCEB2"/>
<rect x="25.3787" y="37.0291" width="9.46658" height="13.2532" rx="4.73329" fill="white"/>
<rect x="35.3717" y="37.0291" width="9.46658" height="13.2532" rx="4.73329" fill="white"/>
<rect x="30.954" y="43.6548" width="2.94516" height="4.10219" rx="1.47258" fill="black"/>
<rect x="41.0518" y="43.6548" width="2.94516" height="4.10219" rx="1.47258" fill="black"/>
<path d="M25.1698 42.6038C25.1698 40.6043 26.069 37.0291 30.11 37.0291C34.2423 37.0291 35.1983 40.7977 35.1613 42.6038" stroke="#BF7E63" stroke-width="1.43444" stroke-linecap="round"/>
<path d="M35.1604 42.6038C35.1604 40.6043 36.0596 37.0291 40.1006 37.0291C44.2329 37.0291 45.1889 40.7977 45.1519 42.6038" stroke="#BF7E63" stroke-width="1.43444" stroke-linecap="round"/>
<path d="M32.7431 53.6458L33.0052 53.7887C34.3922 54.5446 36.0799 54.4899 37.415 53.6458V53.6458" stroke="#FF5252" stroke-width="6.16809" stroke-linecap="round"/>
<circle cx="35.1624" cy="49.335" r="1.47258" fill="#EEA586"/>
<path d="M33.058 53.6458L33.3 53.7777C34.5803 54.4754 36.1381 54.425 37.3706 53.6458V53.6458" stroke="#C23A3A" stroke-width="0.71722" stroke-linecap="round"/>
<path d="M46.6268 18.7608C49.9225 18.6556 56.5772 20.9276 56.8296 30.857C57.0821 40.7863 56.9348 53.1911 56.8296 58.1523" stroke="black" stroke-width="7.60253" stroke-linecap="round"/>
<path d="M43.9962 18.9556C41.3118 13.2419 35.4445 11.167 28.444 12.745C21.5039 14.3094 16.1301 21.0165 16.1301 27.5379C16.1301 36.9205 16.0449 50.0412 16.1301 54.7281" stroke="black" stroke-width="7.60253" stroke-linecap="round"/>
<path d="M43.9965 19.5212C41.7042 15.942 32.2829 13.9734 27.3774 18.7317C22.4719 23.4899 22.7522 29.8903 22.7522 32.8517" stroke="#55391E" stroke-width="7.60253" stroke-linecap="round"/>
<path d="M46.6785 12.4443C45.2059 9.46408 39.6942 3.93489 29.4282 5.65992C19.1623 7.38494 12.5988 12.4443 10.6003 14.7583" stroke="black" stroke-width="7.60253" stroke-linecap="round"/>
<path d="M47.2562 11.0787C49.6053 9.32558 55.5447 7.23943 60.5094 12.9194" stroke="black" stroke-width="7.60253" stroke-linecap="round"/>
<path d="M46.4265 13.1643C52.0913 10.9954 64.1541 12.1415 67.0873 34.0778" stroke="#291C0F" stroke-width="7.60253" stroke-linecap="round"/>
<path d="M45.5736 17.5582C42.4856 11.0667 35.7359 8.70937 27.6827 10.5022C19.699 12.2795 13.6342 20.7762 13.5171 26.0818C13.2818 36.7392 13.4191 52.8758 13.5171 58.2007" stroke="#291C0E" stroke-width="7.60253" stroke-linecap="round"/>
<path d="M15.6492 8.00969C14.4832 3.67246 18.703 2.85723 20.924 2.55361C24.6025 2.05074 31.895 3.49807 32.3412 7.24997C32.87 11.6969 27.3902 13.5578 24.6371 13.6729C19.9606 13.8685 16.8152 12.3469 15.6492 8.00969Z" fill="#5A42EE" fill-opacity="0.49"/>
<path fill-rule="evenodd" clip-rule="evenodd" d="M19.2507 1.05407C25.8089 0.144734 32.0411 2.97147 34.3374 4.4985C36.1285 5.35272 38.2066 4.28036 39.0218 3.63741C43.0862 1.05408 47.5296 0.67519 53.1784 0.950745C57.6975 1.17119 59.4244 3.7063 59.7229 4.94629C60.274 7.1737 59.8882 12.1521 53.9362 14.2463C47.9842 16.3405 42.8681 14.8892 41.054 13.9018C39.0549 12.9023 38.0519 9.42768 37.8188 8.62044C37.8029 8.56535 37.7906 8.52268 37.7818 8.49407C37.644 8.04629 37.334 7.28851 35.9218 7.28851C34.792 7.28851 34.3948 8.09222 34.3374 8.49407C33.6209 11.3598 31.6966 13.2933 30.824 13.9018C27.6135 16.1407 21.4207 15.6585 17.0807 13.9018C12.9613 12.2345 11.8107 8.58592 11.8107 6.80629C11.8107 5.25628 12.6925 1.9634 19.2507 1.05407ZM15.7977 8.0124C14.6404 3.68618 18.8288 2.87302 21.0333 2.57017C24.6844 2.06858 31.9226 3.51224 32.3655 7.25461C32.8904 11.6902 27.4514 13.5464 24.7188 13.6613C20.0771 13.8563 16.9551 12.3386 15.7977 8.0124ZM50.8732 2.57017C53.0777 2.87302 57.2661 3.68618 56.1088 8.0124C54.9514 12.3386 51.8294 13.8563 47.1877 13.6613C44.4551 13.5464 39.0161 11.6902 39.541 7.25461C39.9839 3.51224 47.2221 2.06858 50.8732 2.57017Z" fill="#D7D7D7"/>
<path d="M56.2233 8.00969C57.3893 3.67246 53.1695 2.85723 50.9485 2.55361C47.27 2.05074 39.9775 3.49807 39.5313 7.24997C39.0025 11.6969 44.4823 13.5578 47.2354 13.6729C51.9119 13.8685 55.0573 12.3469 56.2233 8.00969Z" fill="#5A42EE" fill-opacity="0.49"/>
</svg>
