<svg viewBox="0 0 69 70" fill="none" xmlns="http://www.w3.org/2000/svg">
<ellipse cx="28.9622" cy="16.8341" rx="18.4597" ry="10.5167" transform="rotate(20.6779 28.9622 16.8341)" fill="#C1B7FF"/>
<circle cx="58.553" cy="43.6058" r="7.31324" fill="#755946"/>
<circle cx="11.583" cy="43.6058" r="7.31324" fill="#755946"/>
<path fill-rule="evenodd" clip-rule="evenodd" d="M12.2004 36.8038V45.7625C12.2004 58.6474 22.6457 69.0927 35.5307 69.0927C48.4156 69.0927 58.8609 58.6474 58.8609 45.7625V36.8038H12.2004Z" fill="#957259"/>
<path fill-rule="evenodd" clip-rule="evenodd" d="M12.1656 47.8524V40.6153C12.1656 27.721 22.6185 17.2682 35.5127 17.2682C48.407 17.2682 58.8598 27.721 58.8598 40.6153V47.8524H12.1656Z" fill="#957259"/>
<rect x="26.1061" y="39.898" width="9.2703" height="12.9784" rx="4.63515" fill="white"/>
<rect x="35.8903" y="39.898" width="9.2703" height="12.9784" rx="4.63515" fill="white"/>
<rect x="31.5658" y="46.3859" width="2.88409" height="4.01713" rx="1.44205" fill="black"/>
<rect x="41.4524" y="46.3859" width="2.88409" height="4.01713" rx="1.44205" fill="black"/>
<path d="M25.8993 45.3572C25.8993 43.399 26.7798 39.898 30.7371 39.898C34.7837 39.898 35.7198 43.5885 35.6836 45.3572" stroke="#4B3729" stroke-width="1.4047" stroke-linecap="round"/>
<path d="M35.6862 45.3572C35.6862 43.399 36.5667 39.898 40.524 39.898C44.5706 39.898 45.5068 43.5885 45.4705 45.3572" stroke="#4B3729" stroke-width="1.4047" stroke-linecap="round"/>
<path d="M33.3149 56.1734L33.5716 56.3133C34.9298 57.0535 36.5825 57 37.8899 56.1734V56.1734" stroke="#FF5252" stroke-width="6.0402" stroke-linecap="round"/>
<circle cx="35.6853" cy="51.9483" r="1.44205" fill="#755946"/>
<path d="M33.6262 56.1734L33.8631 56.3025C35.1169 56.9858 36.6424 56.9364 37.8493 56.1734V56.1734" stroke="#C23A3A" stroke-width="0.702349" stroke-linecap="round"/>
<path d="M38.0027 34.8793C26.1779 32.8193 29.2989 22.1069 32.3375 17.0083H42.9984C46.0885 18.7765 52.691 23.2606 54.3803 27.0511C56.4918 31.7892 52.7837 37.4544 38.0027 34.8793Z" fill="#C1B7FF"/>
<path d="M46.205 33.8619C37.0393 26.1122 43.7759 23.8262 48.9735 20.9601L54.9476 21.8504C58.6558 23.4469 64.7503 31.2514 64.2941 35.3762C63.7238 40.5321 57.6622 43.5491 46.205 33.8619Z" fill="#C1B7FF"/>
<path d="M13.1753 19.3804C23.3121 12.7903 31.8776 12.1659 34.1502 18.7253L31.3207 26.6586C29.28 37.353 12.8705 39.8243 8.39248 37.743C2.7949 35.1413 0.504229 27.6181 13.1753 19.3804Z" fill="#C1B7FF"/>
<ellipse cx="49.1966" cy="21.2701" rx="14.6379" ry="7.98276" transform="rotate(10.8491 49.1966 21.2701)" fill="#C1B7FF"/>
</svg>
