<svg viewBox="0 0 67 66" fill="none" xmlns="http://www.w3.org/2000/svg">
<ellipse cx="24.4341" cy="5.85214" rx="3.95862" ry="2.15882" transform="rotate(36.1529 24.4341 5.85214)" fill="black"/>
<ellipse cx="28.8214" cy="4.80242" rx="3.95862" ry="2.15882" transform="rotate(116.159 28.8214 4.80242)" fill="black"/>
<path d="M33.7064 5.11452C9.43319 5.11452 5.00023 26.5271 5.00023 35.3205H63.2234C63.2234 26.0703 58.7364 5.11452 33.7064 5.11452Z" fill="black"/>
<circle cx="58.5168" cy="38.7119" r="7.77039" fill="#F9C8BF"/>
<circle cx="8.61223" cy="38.7119" r="7.77039" fill="#F9C8BF"/>
<path fill-rule="evenodd" clip-rule="evenodd" d="M9.26945 31.4854V41.0039C9.26945 54.6942 20.3677 65.7925 34.0581 65.7925C47.7484 65.7925 58.8467 54.6942 58.8467 41.0039V31.4854H9.26945Z" fill="#FFE6E1"/>
<path fill-rule="evenodd" clip-rule="evenodd" d="M9.23505 43.2811V35.5863C9.23505 21.8861 20.3413 10.7798 34.0416 10.7798C47.7418 10.7798 58.8481 21.8861 58.8481 35.5863V43.2811H9.23505Z" fill="#FFE6E1"/>
<path d="M11.9386 33.3194C30.8421 32.5631 39.1647 18.2181 41.0075 10.7383C23.3668 4.74958 12.9536 18.3897 8.71643 28.7452C7.78323 31.0259 9.47635 33.4179 11.9386 33.3194Z" fill="black"/>
<rect x="24.0443" y="34.7738" width="9.84979" height="13.7897" rx="4.92489" fill="white"/>
<rect x="34.4398" y="34.7738" width="9.84979" height="13.7897" rx="4.92489" fill="white"/>
<rect x="29.8433" y="41.666" width="3.06438" height="4.26824" rx="1.53219" fill="black"/>
<rect x="40.3501" y="41.666" width="3.06438" height="4.26824" rx="1.53219" fill="black"/>
<path d="M50.5532 23.5463C46.8704 18.2639 40.9527 16.6302 37.6143 15.2687V10.6942C39.1843 10.8576 44.0458 11.6854 50.9321 13.6894C57.8184 15.6935 61.8499 27.6307 63.0048 33.3488H60.0545C57.0936 33.3488 54.5128 31.3623 53.3274 28.649C52.5843 26.9484 51.646 25.1138 50.5532 23.5463Z" fill="black"/>
<path d="M23.8238 40.5743C23.8238 38.4937 24.7593 34.7738 28.964 34.7738C33.2636 34.7738 34.2582 38.695 34.2197 40.5743" stroke="#E19283" stroke-width="1.4047" stroke-linecap="round"/>
<path d="M34.2214 40.5743C34.2214 38.4937 35.1569 34.7738 39.3616 34.7738C43.6611 34.7738 44.6558 38.695 44.6173 40.5743" stroke="#E19283" stroke-width="1.4047" stroke-linecap="round"/>
<path d="M31.704 52.0636L31.9767 52.2122C33.4199 52.9987 35.1758 52.9419 36.5651 52.0636V52.0636" stroke="#FF5252" stroke-width="6.0402" stroke-linecap="round"/>
<circle cx="34.2222" cy="47.5767" r="1.53219" fill="#F9C8BF"/>
<path d="M32.0337 52.0636L32.2855 52.2008C33.6176 52.9268 35.2385 52.8743 36.5208 52.0636V52.0636" stroke="#C23A3A" stroke-width="0.702349" stroke-linecap="round"/>
<path d="M30.55 14.4467C40.1725 8.59523 48.6432 8.56356 51.3529 15.2373L49.0857 22.9255C47.7924 33.4115 31.6521 34.7392 27.0581 32.3634C21.3156 29.3936 18.5218 21.761 30.55 14.4467Z" fill="black"/>
</svg>
