<svg width="71" height="67" viewBox="0 0 71 67" fill="none" xmlns="http://www.w3.org/2000/svg">
<circle cx="11.4825" cy="11.377" r="10.918" fill="#231D18"/>
<circle cx="59.1334" cy="11.3771" r="10.918" fill="#231D18"/>
<path d="M34.5716 10.4607C11.9406 10.4607 7.80759 29.412 7.80759 37.1946H62.0917C62.0917 29.0077 57.9082 10.4607 34.5716 10.4607Z" fill="#48382D"/>
<circle cx="57.9082" cy="40.7654" r="7.24468" fill="#F9C8BF"/>
<circle cx="11.3797" cy="40.7654" r="7.24468" fill="#F9C8BF"/>
<path fill-rule="evenodd" clip-rule="evenodd" d="M11.9916 34.0271V42.9028C11.9916 55.6669 22.339 66.0143 35.1031 66.0143C47.8672 66.0143 58.2146 55.6669 58.2146 42.9028V34.0271H11.9916Z" fill="#FFE6E1"/>
<path fill-rule="evenodd" clip-rule="evenodd" d="M11.96 44.9715V37.8013C11.96 25.028 22.3148 14.6731 35.0882 14.6731C47.8616 14.6731 58.2164 25.028 58.2164 37.8013V44.9715H11.96Z" fill="#FFE6E1"/>
<path d="M41.176 12.7444C39.3203 20.2768 30.4163 35.2764 9.6463 33.7135C12.1784 24.2491 22.1853 6.2973 41.176 12.7444Z" fill="#48382D"/>
<rect x="25.7664" y="37.0918" width="9.1834" height="12.8568" rx="4.5917" fill="white"/>
<rect x="35.4605" y="37.0918" width="9.1834" height="12.8568" rx="4.5917" fill="white"/>
<rect x="31.1749" y="43.5201" width="2.85706" height="3.97947" rx="1.42853" fill="black"/>
<rect x="40.9702" y="43.5201" width="2.85706" height="3.97947" rx="1.42853" fill="black"/>
<path d="M50.075 24.6865C46.6414 19.7615 41.1241 18.2383 38.0115 16.9689V12.704C39.4753 12.8563 44.0079 13.628 50.4283 15.4965C56.8488 17.365 60.6075 28.4945 61.6843 33.8258H59.2254C56.2923 33.8258 53.7386 31.8558 52.5437 29.1771C51.8706 27.6681 51.037 26.0663 50.075 24.6865Z" fill="#48382D"/>
<path d="M25.5636 42.4998C25.5636 40.5601 26.4358 37.0918 30.356 37.0918C34.3647 37.0919 35.2921 40.7477 35.2562 42.4998" stroke="#E19283" stroke-width="1.39153" stroke-linecap="round"/>
<path d="M35.2568 42.4998C35.2568 40.5601 36.1291 37.0918 40.0493 37.0918C44.058 37.0919 44.9853 40.7477 44.9494 42.4998" stroke="#E19283" stroke-width="1.39153" stroke-linecap="round"/>
<path d="M32.9112 53.22L33.1654 53.3586C34.5109 54.0919 36.1481 54.0388 37.4433 53.22V53.22" stroke="#FF5252" stroke-width="5.98358" stroke-linecap="round"/>
<circle cx="35.256" cy="49.0292" r="1.42853" fill="#F9C8BF"/>
<path d="M33.2169 53.22L33.4516 53.3479C34.6936 54.0248 36.2048 53.9758 37.4004 53.22V53.22" stroke="#C23A3A" stroke-width="0.695765" stroke-linecap="round"/>
<circle cx="15.5629" cy="50.1516" r="0.204076" fill="#E19283"/>
<circle cx="18.4208" cy="51.4787" r="0.204076" fill="#E19283"/>
<circle cx="23.4195" cy="53.4171" r="0.204076" fill="#E19283"/>
<circle cx="25.7676" cy="52.3997" r="0.204076" fill="#E19283"/>
<circle cx="50.6651" cy="53.0103" r="0.204076" fill="#E19283"/>
<circle cx="24.4411" cy="48.4178" r="0.204076" fill="#E19283"/>
<circle cx="23.4195" cy="49.7457" r="0.204076" fill="#E19283"/>
<circle cx="31.379" cy="50.6626" r="0.204076" fill="#E19283"/>
<circle cx="41.1743" cy="51.2757" r="0.204076" fill="#E19283"/>
<circle cx="45.8693" cy="49.2323" r="0.204076" fill="#E19283"/>
<circle cx="48.1137" cy="50.4582" r="0.204076" fill="#E19283"/>
<circle cx="51.2773" cy="49.6422" r="0.204076" fill="#E19283"/>
<circle cx="50.2562" cy="48.4178" r="0.204076" fill="#E19283"/>
<circle cx="53.2161" cy="49.3349" r="0.204076" fill="#E19283"/>
<circle cx="54.2349" cy="50.4582" r="0.204076" fill="#E19283"/>
<circle cx="56.3785" cy="48.8261" r="0.204076" fill="#E19283"/>
<circle cx="55.7663" cy="47.4984" r="0.204076" fill="#E19283"/>
<circle cx="53.2161" cy="46.0703" r="0.204076" fill="#E19283"/>
<circle cx="53.2161" cy="47.0917" r="0.204076" fill="#E19283"/>
<circle cx="56.5834" cy="46.0703" r="0.204076" fill="#E19283"/>
<circle cx="48.9301" cy="47.6027" r="0.204076" fill="#E19283"/>
<circle cx="45.8693" cy="52.602" r="0.204076" fill="#E19283"/>
<circle cx="14.5429" cy="47.0917" r="0.204076" fill="#E19283"/>
<circle cx="28.3178" cy="51.0704" r="0.204076" fill="#E19283"/>
<circle cx="20.6649" cy="50.4582" r="0.204076" fill="#E19283"/>
<circle cx="17.6037" cy="47.4984" r="0.204076" fill="#E19283"/>
</svg>
