<svg width="62" height="72" viewBox="0 0 62 72" fill="none" xmlns="http://www.w3.org/2000/svg">
<path d="M26.7166 30.2366C11.7761 31.5107 16.4553 21.4651 20.6624 16.2829C26.4991 8.26761 37.1114 1.00653 45.7246 9.14164C52.5136 15.5539 45.3923 28.6439 26.7166 30.2366Z" fill="#7D68FF"/>
<path d="M18.4802 25.1914C7.74795 15.0539 15.9113 8.17829 21.3345 6.00765C29.2695 2.13571 43.5411 6.00765 41.8285 17.7995C40.1159 29.5913 31.8955 37.8632 18.4802 25.1914Z" fill="#9F90F9"/>
<path d="M3.84857 42.4086C4.23526 36.2216 5.68533 30.228 8.7305 25.5394C18.8327 13.5521 30.82 15.3405 33.9618 15.3405C37.1036 15.3405 47.7375 17.419 53.6828 25.5394C58.0631 31.5222 58.5647 39.4118 58.5647 42.4086C58.5044 48.0504 53.9894 53.8063 50.6042 57.3359C48.5743 59.4524 47.3922 63.5786 44.5884 64.4383C41.5325 65.3754 35.0066 65.318 21.3434 61.9456C18.6766 61.2873 16.7633 58.7587 15.1431 56.5406C11.5604 51.6358 3.54611 47.248 3.84857 42.4086Z" fill="#C1B7FF"/>
<path d="M30.7719 17.9495C9.06906 17.9495 5.10553 36.0755 5.10553 43.5192H57.1632C57.1632 35.6888 53.1514 17.9495 30.7719 17.9495Z" fill="#C1B7FF"/>
<path d="M13.1061 42.7213C25.6944 41.2745 30.8807 33.1827 32.4985 26.2654C33.2591 23.0134 30.4315 20.2681 27.1301 20.7729C14.6424 22.6825 9.52997 30.5987 7.95738 37.2563C7.21436 40.4019 9.89509 43.0903 13.1061 42.7213Z" fill="#D68C4B"/>
<path d="M49.1067 42.7213C36.5184 41.2745 31.3322 33.1827 29.7144 26.2654C28.9538 23.0134 31.7814 20.2681 35.0828 20.7729C47.5705 22.6825 52.6829 30.5987 54.2555 37.2563C54.9985 40.4019 52.3178 43.0903 49.1067 42.7213Z" fill="#D68C4B"/>
<circle cx="54.4156" cy="46.2723" r="7.31324" fill="#F9C8BF"/>
<circle cx="7.44607" cy="46.2723" r="7.31324" fill="#F9C8BF"/>
<path fill-rule="evenodd" clip-rule="evenodd" d="M8.06312 39.4697L8.06312 48.4286C8.06312 61.3135 18.5084 71.7589 31.3933 71.7589C44.2783 71.7589 54.7236 61.3136 54.7236 48.4286V39.4697H8.06312Z" fill="#FFE6E1"/>
<path fill-rule="evenodd" clip-rule="evenodd" d="M8.03104 50.5751V43.3368C8.03104 30.4425 18.4839 19.9897 31.3781 19.9897C44.2724 19.9897 54.7252 30.4425 54.7252 43.3368V50.5751H8.03104Z" fill="#FFE6E1"/>
<rect x="21.9692" y="42.5645" width="9.2703" height="12.9784" rx="4.63515" fill="white"/>
<rect x="31.7561" y="42.5645" width="9.2703" height="12.9784" rx="4.63515" fill="white"/>
<rect x="27.4288" y="49.0522" width="2.88409" height="4.01713" rx="1.44205" fill="black"/>
<rect x="37.3178" y="49.0522" width="2.88409" height="4.01713" rx="1.44205" fill="black"/>
<path d="M21.7647 48.0237C21.7647 46.0655 22.6452 42.5645 26.6025 42.5645C30.6491 42.5645 31.5852 46.255 31.549 48.0237" stroke="#E19283" stroke-width="1.4047" stroke-linecap="round"/>
<path d="M31.5492 48.0237C31.5492 46.0655 32.4297 42.5645 36.387 42.5645C40.4336 42.5645 41.3698 46.255 41.3335 48.0237" stroke="#E19283" stroke-width="1.4047" stroke-linecap="round"/>
<path d="M29.1803 58.8399L29.437 58.9798C30.7952 59.72 32.4479 59.6665 33.7554 58.8399V58.8399" stroke="#FF5252" stroke-width="6.0402" stroke-linecap="round"/>
<circle cx="31.5483" cy="54.6146" r="1.44205" fill="#F9C8BF"/>
<path d="M29.4888 58.8399L29.7257 58.969C30.9795 59.6523 32.505 59.6029 33.712 58.8399V58.8399" stroke="#C23A3A" stroke-width="0.702349" stroke-linecap="round"/>
<path d="M12.5729 42.353C25.8806 40.8236 31.3631 32.2693 33.0734 24.9568C33.8775 21.5189 30.8883 18.6167 27.3983 19.1504C14.197 21.1692 8.79243 29.5377 7.12997 36.5757C6.3445 39.9011 9.17842 42.7431 12.5729 42.353Z" fill="#C1B7FF"/>
<path d="M50.661 42.1958C36.145 40.8062 30.1817 32.2595 28.3265 24.9524C27.46 21.5392 30.4375 18.6551 33.9295 19.1102C48.3518 20.9899 54.2419 29.3532 56.051 36.3905C56.9009 39.6964 54.0589 42.521 50.661 42.1958Z" fill="#C1B7FF"/>
</svg>
