<svg width="388" height="59" viewBox="0 0 388 59" fill="none" xmlns="http://www.w3.org/2000/svg">
<path d="M23.1793 36.9347H8.1408C6.61689 36.9347 5.18656 36.547 3.8498 35.7717C2.53978 34.9964 1.56394 33.8868 0.9223 32.4431C0.307391 30.9994 0.106877 29.4889 0.320758 27.9115L2.76703 9.02314C2.98091 7.44576 3.56908 5.94859 4.53155 4.53163C5.49401 3.08793 6.75057 1.97842 8.30121 1.2031C9.85185 0.401045 11.4025 1.77287e-05 12.9531 1.77287e-05C14.5305 1.77287e-05 15.9742 0.401045 17.2842 1.2031C18.621 1.97842 19.5968 3.08793 20.2117 4.53163C20.8266 5.94859 21.0271 7.44576 20.8133 9.02314L19.53 18.8884H25.5454L26.8287 9.02314C27.0426 7.44576 27.6307 5.94859 28.5932 4.53163C29.5557 3.08793 30.8122 1.97842 32.3629 1.2031C33.9135 0.401045 35.4641 1.77287e-05 37.0148 1.77287e-05C38.5922 1.77287e-05 40.0359 0.401045 41.3459 1.2031C42.6826 1.97842 43.6585 3.08793 44.2734 4.53163C44.8883 5.94859 45.0888 7.44576 44.8749 9.02314L39.6616 48.9655C39.4744 50.5429 38.8729 52.0534 37.8569 53.4971C36.8677 54.9408 35.5978 56.0503 34.0472 56.8256C32.5233 57.6009 30.9994 57.9886 29.4755 57.9886C27.9516 57.9886 26.5212 57.6009 25.1845 56.8256C23.8744 56.0503 22.8986 54.9408 22.257 53.4971C21.6421 52.0534 21.4282 50.5429 21.6153 48.9655L23.1793 36.9347ZM61.7181 36.9347C61.6379 37.4694 61.7047 37.9773 61.9186 38.4586C62.1325 38.9131 62.4533 39.274 62.8811 39.5413C63.3356 39.8087 63.8168 39.9424 64.3248 39.9424C64.8595 39.9424 65.3808 39.8087 65.8888 39.5413C66.3967 39.274 66.8111 38.9131 67.1319 38.4586C67.4528 37.9773 67.6533 37.4694 67.7335 36.9347L69.7787 21.054C69.8589 20.5193 69.7921 20.0113 69.5782 19.5301C69.3911 19.0488 69.0702 18.6879 68.6157 18.4473C68.1613 18.1799 67.68 18.0463 67.172 18.0463C66.6641 18.0463 66.1561 18.1799 65.6481 18.4473C65.1402 18.6879 64.7124 19.0488 64.3649 19.5301C64.044 20.0113 63.8435 20.5193 63.7633 21.054L61.7181 36.9347ZM45.7171 21.0941C46.1983 17.4046 47.6019 13.8756 49.9279 10.5069C52.2538 7.11157 55.2081 4.51826 58.7906 2.727C62.3998 0.909013 65.969 1.77287e-05 69.498 1.77287e-05C73.0538 1.77287e-05 76.3823 0.909013 79.4836 2.727C82.6116 4.51826 84.8975 7.11157 86.3412 10.5069C87.8116 13.8756 88.3062 17.4046 87.825 21.0941L85.7797 36.9748C85.2985 40.6107 83.9216 44.0997 81.6491 47.4416C79.3767 50.7567 76.4492 53.35 72.8666 55.2215C69.2841 57.0662 65.6481 57.9886 61.9587 57.9886C58.3494 57.9886 54.9808 57.0662 51.8528 55.2215C48.7515 53.35 46.4924 50.7567 45.0754 47.4416C43.6585 44.0997 43.1906 40.6107 43.6718 36.9748L45.7171 21.0941ZM112.207 36.9347H97.1689C95.645 36.9347 94.2147 36.547 92.8779 35.7717C91.5679 34.9964 90.5921 33.8868 89.9504 32.4431C89.3355 30.9994 89.135 29.4889 89.3489 27.9115L91.7951 9.02314C92.009 7.44576 92.5972 5.94859 93.5597 4.53163C94.5221 3.08793 95.7787 1.97842 97.3293 1.2031C98.88 0.401045 100.431 1.77287e-05 101.981 1.77287e-05C103.559 1.77287e-05 105.002 0.401045 106.312 1.2031C107.649 1.97842 108.625 3.08793 109.24 4.53163C109.855 5.94859 110.055 7.44576 109.841 9.02314L108.558 18.8884H114.574L115.857 9.02314C116.071 7.44576 116.659 5.94859 117.621 4.53163C118.584 3.08793 119.84 1.97842 121.391 1.2031C122.942 0.401045 124.492 1.77287e-05 126.043 1.77287e-05C127.62 1.77287e-05 129.064 0.401045 130.374 1.2031C131.711 1.97842 132.687 3.08793 133.301 4.53163C133.916 5.94859 134.117 7.44576 133.903 9.02314L128.69 48.9655C128.503 50.5429 127.901 52.0534 126.885 53.4971C125.896 54.9408 124.626 56.0503 123.075 56.8256C121.551 57.6009 120.027 57.9886 118.504 57.9886C116.98 57.9886 115.549 57.6009 114.213 56.8256C112.903 56.0503 111.927 54.9408 111.285 53.4971C110.67 52.0534 110.456 50.5429 110.643 48.9655L112.207 36.9347ZM199.311 39.9424C200.835 39.9424 202.251 40.33 203.562 41.1053C204.898 41.8807 205.874 42.9902 206.489 44.4339C207.131 45.8776 207.358 47.3881 207.171 48.9655C206.957 50.5429 206.355 52.04 205.366 53.457C204.404 54.874 203.147 55.9835 201.596 56.7855C200.073 57.5876 198.522 57.9886 196.945 57.9886H172.722C171.279 57.9619 169.915 57.5742 168.632 56.8256C167.295 56.0503 166.319 54.9408 165.705 53.4971C165.063 52.0534 164.849 50.5429 165.063 48.9655L170.236 9.02314C170.45 7.44576 171.052 5.93523 172.041 4.49153C173.057 3.04783 174.34 1.93832 175.891 1.163C177.334 0.414413 178.791 0.0267529 180.262 1.77287e-05H203.682C205.259 1.77287e-05 206.716 0.401045 208.053 1.2031C209.39 1.97842 210.352 3.08793 210.94 4.53163C211.555 5.94859 211.756 7.44576 211.542 9.02314C211.328 10.6005 210.713 12.111 209.697 13.5547C208.708 14.9984 207.451 16.108 205.928 16.8833C204.404 17.6586 202.88 18.0463 201.356 18.0463H187.721C187.614 18.0463 187.507 18.073 187.4 18.1265C187.293 18.1799 187.2 18.2601 187.119 18.3671C187.066 18.4473 187.039 18.5409 187.039 18.6478L186.959 19.3696C186.932 19.4766 186.932 19.5835 186.959 19.6905C187.012 19.7707 187.079 19.8375 187.159 19.891C187.266 19.9445 187.373 19.9712 187.48 19.9712H195.902C197.479 19.9712 198.923 20.3722 200.233 21.1743C201.57 21.9496 202.532 23.0591 203.12 24.5028C203.735 25.9198 203.936 27.4169 203.722 28.9943C203.535 30.5717 202.933 32.0822 201.917 33.5259C200.928 34.9696 199.658 36.0791 198.108 36.8544C196.584 37.6298 195.06 38.0174 193.536 38.0174H185.114C185.007 38.0174 184.9 38.0442 184.793 38.0976C184.713 38.1511 184.633 38.2313 184.553 38.3383C184.499 38.4185 184.459 38.512 184.433 38.619L184.352 39.3408C184.326 39.4478 184.326 39.5547 184.352 39.6616C184.406 39.7418 184.473 39.8087 184.553 39.8622C184.66 39.9156 184.767 39.9424 184.874 39.9424H199.311ZM227.904 46.6796L227.623 48.9655C227.409 50.5429 226.808 52.04 225.819 53.457C224.856 54.874 223.6 55.9835 222.049 56.7855C220.525 57.5876 218.974 57.9886 217.397 57.9886C215.846 57.9886 214.403 57.5876 213.066 56.7855C211.729 55.9835 210.767 54.874 210.178 53.457C209.564 52.04 209.363 50.5429 209.577 48.9655L214.63 9.9856H214.67C214.697 9.66478 214.723 9.34396 214.75 9.02314C214.964 7.44576 215.566 5.93523 216.555 4.49153C217.571 3.04783 218.841 1.93832 220.365 1.163C221.888 0.387678 223.412 1.77287e-05 224.936 1.77287e-05H236.927C240.483 1.77287e-05 243.825 0.909013 246.953 2.727C250.081 4.51826 252.367 7.11157 253.81 10.5069C255.281 13.8756 255.775 17.4046 255.294 21.0941C254.813 24.73 253.436 28.2056 251.163 31.5208C249.586 33.8735 247.661 35.8519 245.389 37.456L245.429 37.4961L249.8 42.549C250.789 43.6719 251.404 45.0087 251.645 46.5593C251.885 48.11 251.685 49.674 251.043 51.2513C250.402 52.8287 249.439 54.1788 248.156 55.3017C246.926 56.3979 245.482 57.1732 243.825 57.6277C242.167 58.0822 240.59 58.0955 239.093 57.6678C237.622 57.2133 236.392 56.4246 235.403 55.3017L227.904 46.6796ZM233.839 24.0617C234.374 24.0617 234.895 23.928 235.403 23.6606C235.911 23.3933 236.325 23.0324 236.646 22.5779C236.994 22.0966 237.194 21.5887 237.248 21.054C237.328 20.5193 237.261 20.0113 237.047 19.5301C236.833 19.0488 236.499 18.6879 236.045 18.4473C235.617 18.1799 235.149 18.0463 234.641 18.0463H232.235C232.128 18.0463 232.021 18.073 231.914 18.1265C231.807 18.1799 231.714 18.2601 231.633 18.3671C231.58 18.4473 231.553 18.5409 231.553 18.6478L230.912 23.4601C230.912 23.5671 230.925 23.674 230.952 23.781C231.005 23.8612 231.072 23.928 231.152 23.9815C231.232 24.0349 231.326 24.0617 231.433 24.0617H233.839ZM272.739 46.6796L272.458 48.9655C272.244 50.5429 271.643 52.04 270.653 53.457C269.691 54.874 268.434 55.9835 266.884 56.7855C265.36 57.5876 263.809 57.9886 262.232 57.9886C260.681 57.9886 259.237 57.5876 257.901 56.7855C256.564 55.9835 255.602 54.874 255.013 53.457C254.398 52.04 254.198 50.5429 254.412 48.9655L259.465 9.9856H259.505C259.532 9.66478 259.558 9.34396 259.585 9.02314C259.799 7.44576 260.4 5.93523 261.39 4.49153C262.406 3.04783 263.676 1.93832 265.199 1.163C266.723 0.387678 268.247 1.77287e-05 269.771 1.77287e-05H281.762C285.318 1.77287e-05 288.66 0.909013 291.788 2.727C294.916 4.51826 297.201 7.11157 298.645 10.5069C300.116 13.8756 300.61 17.4046 300.129 21.0941C299.648 24.73 298.271 28.2056 295.998 31.5208C294.421 33.8735 292.496 35.8519 290.224 37.456L290.264 37.4961L294.635 42.549C295.624 43.6719 296.239 45.0087 296.48 46.5593C296.72 48.11 296.52 49.674 295.878 51.2513C295.236 52.8287 294.274 54.1788 292.991 55.3017C291.761 56.3979 290.317 57.1732 288.66 57.6277C287.002 58.0822 285.425 58.0955 283.927 57.6678C282.457 57.2133 281.227 56.4246 280.238 55.3017L272.739 46.6796ZM278.674 24.0617C279.209 24.0617 279.73 23.928 280.238 23.6606C280.746 23.3933 281.16 23.0324 281.481 22.5779C281.829 22.0966 282.029 21.5887 282.083 21.054C282.163 20.5193 282.096 20.0113 281.882 19.5301C281.668 19.0488 281.334 18.6879 280.88 18.4473C280.452 18.1799 279.984 18.0463 279.476 18.0463H277.07C276.963 18.0463 276.856 18.073 276.749 18.1265C276.642 18.1799 276.549 18.2601 276.468 18.3671C276.415 18.4473 276.388 18.5409 276.388 18.6478L275.746 23.4601C275.746 23.5671 275.76 23.674 275.787 23.781C275.84 23.8612 275.907 23.928 275.987 23.9815C276.067 24.0349 276.161 24.0617 276.268 24.0617H278.674ZM316.531 36.9347C316.451 37.4694 316.518 37.9773 316.731 38.4586C316.945 38.9131 317.266 39.274 317.694 39.5413C318.148 39.8087 318.63 39.9424 319.138 39.9424C319.672 39.9424 320.194 39.8087 320.702 39.5413C321.21 39.274 321.624 38.9131 321.945 38.4586C322.266 37.9773 322.466 37.4694 322.546 36.9347L324.592 21.054C324.672 20.5193 324.605 20.0113 324.391 19.5301C324.204 19.0488 323.883 18.6879 323.429 18.4473C322.974 18.1799 322.493 18.0463 321.985 18.0463C321.477 18.0463 320.969 18.1799 320.461 18.4473C319.953 18.6879 319.525 19.0488 319.178 19.5301C318.857 20.0113 318.656 20.5193 318.576 21.054L316.531 36.9347ZM300.53 21.0941C301.011 17.4046 302.415 13.8756 304.741 10.5069C307.067 7.11157 310.021 4.51826 313.603 2.727C317.213 0.909013 320.782 1.77287e-05 324.311 1.77287e-05C327.867 1.77287e-05 331.195 0.909013 334.297 2.727C337.425 4.51826 339.71 7.11157 341.154 10.5069C342.625 13.8756 343.119 17.4046 342.638 21.0941L340.593 36.9748C340.111 40.6107 338.735 44.0997 336.462 47.4416C334.19 50.7567 331.262 53.35 327.68 55.2215C324.097 57.0662 320.461 57.9886 316.772 57.9886C313.162 57.9886 309.794 57.0662 306.666 55.2215C303.564 53.35 301.305 50.7567 299.888 47.4416C298.471 44.0997 298.004 40.6107 298.485 36.9748L300.53 21.0941ZM359.762 46.6796L359.481 48.9655C359.267 50.5429 358.666 52.04 357.676 53.457C356.714 54.874 355.457 55.9835 353.907 56.7855C352.383 57.5876 350.832 57.9886 349.255 57.9886C347.704 57.9886 346.26 57.5876 344.924 56.7855C343.587 55.9835 342.624 54.874 342.036 53.457C341.421 52.04 341.221 50.5429 341.435 48.9655L346.488 9.9856H346.528C346.555 9.66478 346.581 9.34396 346.608 9.02314C346.822 7.44576 347.423 5.93523 348.413 4.49153C349.429 3.04783 350.699 1.93832 352.222 1.163C353.746 0.387678 355.27 1.77287e-05 356.794 1.77287e-05H368.785C372.341 1.77287e-05 375.683 0.909013 378.811 2.727C381.939 4.51826 384.224 7.11157 385.668 10.5069C387.139 13.8756 387.633 17.4046 387.152 21.0941C386.671 24.73 385.294 28.2056 383.021 31.5208C381.444 33.8735 379.519 35.8519 377.247 37.456L377.287 37.4961L381.658 42.549C382.647 43.6719 383.262 45.0087 383.503 46.5593C383.743 48.11 383.543 49.674 382.901 51.2513C382.259 52.8287 381.297 54.1788 380.014 55.3017C378.784 56.3979 377.34 57.1732 375.683 57.6277C374.025 58.0822 372.448 58.0955 370.95 57.6678C369.48 57.2133 368.25 56.4246 367.261 55.3017L359.762 46.6796ZM365.697 24.0617C366.232 24.0617 366.753 23.928 367.261 23.6606C367.769 23.3933 368.183 23.0324 368.504 22.5779C368.852 22.0966 369.052 21.5887 369.106 21.054C369.186 20.5193 369.119 20.0113 368.905 19.5301C368.691 19.0488 368.357 18.6879 367.903 18.4473C367.475 18.1799 367.007 18.0463 366.499 18.0463H364.093C363.986 18.0463 363.879 18.073 363.772 18.1265C363.665 18.1799 363.571 18.2601 363.491 18.3671C363.438 18.4473 363.411 18.5409 363.411 18.6478L362.769 23.4601C362.769 23.5671 362.783 23.674 362.81 23.781C362.863 23.8612 362.93 23.928 363.01 23.9815C363.09 24.0349 363.184 24.0617 363.291 24.0617H365.697Z" fill="#5A42EE"/>
</svg>
