<svg width="36" height="34" viewBox="0 0 36 34" fill="none" xmlns="http://www.w3.org/2000/svg">
<path d="M10.0454 33.9972C10.8622 33.9972 11.4176 33.5708 12.3975 32.6866L18.0495 27.6573H28.5193C33.3866 27.6573 36 24.9543 36 20.1536V7.60456C36 2.80457 33.3866 0.101562 28.5193 0.101562H7.48072C2.63017 0.101562 0 2.78849 0 7.60456V20.1536C0 24.9704 2.62947 27.6573 7.48072 27.6573H8.26475V31.9163C8.26475 33.1779 8.91846 33.9972 10.0454 33.9972ZM10.7144 30.9992V26.2481C10.7144 25.3639 10.3883 25.0193 9.48993 25.0193H7.49675C4.18151 25.0193 2.62947 23.3319 2.62947 20.1375V7.60456C2.62947 4.41016 4.18151 2.73956 7.49744 2.73956H28.5193C31.8185 2.73956 33.3698 4.41016 33.3698 7.60456V20.1375C33.3698 23.3319 31.8185 25.0193 28.5193 25.0193H17.9345C17.0362 25.0193 16.563 25.1507 15.9413 25.7896L10.7144 30.9992Z" fill="#F0F0FC"/>
</svg>
