<svg width="36" height="36" viewBox="0 0 36 36" fill="none" xmlns="http://www.w3.org/2000/svg">
<circle cx="18" cy="18" r="18" fill="#DFDEFF"/>
<path fill-rule="evenodd" clip-rule="evenodd" d="M17.9999 12.0652C19.0137 11.1258 20.3442 10.6029 21.7262 10.6006C23.2202 10.6006 24.6467 11.2152 25.6906 12.2971C26.7294 13.38 27.308 14.8233 27.3049 16.3238C27.308 17.8244 26.7294 19.2677 25.6906 20.3505C25.0016 21.0646 24.3135 21.7961 23.6219 22.5301C22.2162 24.0223 20.7957 25.5311 19.3199 26.9515L19.3173 26.9549C18.9509 27.302 18.4623 27.4903 17.9577 27.4792C17.4532 27.468 16.9734 27.2581 16.6227 26.8952L10.3083 20.3505C8.15732 18.1199 8.15732 14.5277 10.3083 12.298C11.3025 11.2562 12.6669 10.6477 14.1063 10.6041C15.5458 10.5605 16.9445 11.0854 17.9999 12.0652Z" fill="#7B65FF"/>
</svg>
