<svg width="36" height="36" viewBox="0 0 36 36" fill="none" xmlns="http://www.w3.org/2000/svg">
<circle cx="18" cy="18" r="18" fill="#DFDEFF"/>
<path fill-rule="evenodd" clip-rule="evenodd" d="M26.125 23C26.125 21.8394 25.6644 20.7269 24.8437 19.9062C24.0231 19.0856 22.9106 18.625 21.75 18.625H14.25C13.0894 18.625 11.9769 19.0856 11.1563 19.9062C10.3356 20.7269 9.875 21.8394 9.875 23V24.875C9.875 25.3725 10.0725 25.8494 10.4244 26.2006C10.7756 26.5525 11.2525 26.75 11.75 26.75H24.25C24.7475 26.75 25.2244 26.5525 25.5756 26.2006C25.9275 25.8494 26.125 25.3725 26.125 24.875C26.125 24.3369 26.125 23.6769 26.125 23Z" fill="#7B65FF"/>
<path d="M13.5713 12.9463C13.5713 10.502 15.5556 8.51758 18 8.51758C20.4444 8.51758 22.4287 10.502 22.4287 12.9463C22.4287 15.3907 20.4444 17.3751 18 17.3751C15.5556 17.3751 13.5713 15.3907 13.5713 12.9463Z" fill="#7B65FF"/>
</svg>
