<svg width="36" height="36" viewBox="0 0 36 36" fill="none" xmlns="http://www.w3.org/2000/svg">
<circle cx="18" cy="18" r="18" fill="#FFDDDD"/>
<path d="M11.483 22.9783H24.5171C24.7838 22.9783 25 23.2411 25 23.5654V26.3912C25 26.7154 24.7838 26.9783 24.5171 26.9783H11.483C11.2162 26.9783 11 26.7154 11 26.3912V23.5654C11 23.2411 11.2162 22.9783 11.483 22.9783Z" fill="#9099A5"/>
<path d="M12.5433 22.9783H23.4567C23.7568 22.9783 24 22.7297 24 22.4232V18.1086C24 14.7221 21.3145 11.9783 18 11.9783C14.6855 11.9783 12 14.7221 12 18.1086L12 22.4232C12 22.7297 12.2433 22.9783 12.5433 22.9783Z" fill="#FF5252"/>
<path d="M19.819 22.9783H16.1825C16.0825 22.9783 16.0014 22.9011 16.0014 22.806L16 17.8808C16 16.8298 16.8949 15.9783 17.9993 15.9783C19.1038 15.9783 19.9986 16.8298 19.9986 17.8808L20 22.806C20 22.9011 19.919 22.9783 19.819 22.9783Z" fill="#EE173C"/>
<path d="M18.0131 7.02197C18.5276 7.02197 18.9446 7.43902 18.9446 7.95346V9.49448C18.9446 10.0089 18.5276 10.426 18.0131 10.426C17.4987 10.426 17.0816 10.0089 17.0816 9.49448V7.95346C17.0816 7.43902 17.4987 7.02197 18.0131 7.02197Z" fill="#FFB9B9"/>
<path d="M10.2718 10.2147C10.6355 9.85095 11.2253 9.85095 11.5891 10.2147L12.6787 11.3044C13.0425 11.6681 13.0425 12.2579 12.6787 12.6217C12.315 12.9855 11.7252 12.9855 11.3614 12.6217L10.2718 11.532C9.908 11.1683 9.908 10.5785 10.2718 10.2147Z" fill="#FFB9B9"/>
<path d="M8.00553 17.0046H9.54654C10.061 17.0046 10.478 17.4217 10.478 17.9361C10.478 18.4506 10.061 18.8676 9.54654 18.8676H8.00553C7.49108 18.8676 7.07404 18.4506 7.07404 17.9361C7.07404 17.4217 7.49108 17.0046 8.00553 17.0046Z" fill="#FFB9B9"/>
<path d="M26.4534 17.0046H27.9945C28.5089 17.0046 28.926 17.4217 28.926 17.9361C28.926 18.4506 28.5089 18.8676 27.9945 18.8676H26.4534C25.939 18.8676 25.522 18.4506 25.522 17.9361C25.522 17.4217 25.939 17.0046 26.4534 17.0046Z" fill="#FFB9B9"/>
<path d="M23.329 11.3047L24.4188 10.2148C24.7825 9.85097 25.3723 9.85093 25.7361 10.2147C26.0999 10.5784 26.1 11.1683 25.7363 11.5321L24.6465 12.622C24.2828 12.9858 23.693 12.9858 23.3292 12.6221C22.9654 12.2583 22.9653 11.6685 23.329 11.3047Z" fill="#FFB9B9"/>
</svg>
